<?xml version="1.0" encoding="UTF-8"?>
<svg width="248px" height="50px" viewBox="0 0 248 50" version="1.1" xmlns="http://www.w3.org/2000/svg" xmlns:xlink="http://www.w3.org/1999/xlink">
    <!-- Generator: Sketch 61.1 (89650) - https://sketch.com -->
    <title>Logo</title>
    <desc>Created with Sketch.</desc>
    <defs>
        <polygon id="path-1" points="0 56 248 56 248 0 0 0"></polygon>
    </defs>
    <g id="Page-1" stroke="none" stroke-width="1" fill="none" fill-rule="evenodd">
        <g id="OnePage_plaiground-1" transform="translate(-120.000000, -40.000000)">
            <g id="HEADER" transform="translate(-40.000000, -74.000000)">
                <g transform="translate(13.000000, 0.000000)" id="Navigation">
                    <g transform="translate(27.000000, 73.000000)">
                        <g id="Logo" transform="translate(120.000000, 41.000000)">
                            <g id="LOGO/Blanco">
                                <g id="Group-14">
                                    <path d="M14.0067844,19.6882447 C14.9106907,19.6882447 15.7803138,19.6204565 16.6173259,19.48488 C17.453502,19.3501509 18.190173,19.0866242 18.826503,18.6968418 C19.4611606,18.3070595 19.9720641,17.7554328 20.3575413,17.042809 C20.7421822,16.3310325 20.9345027,15.398097 20.9345027,14.2448497 C20.9345027,13.0924497 20.7421822,12.1586668 20.3575413,11.4468904 C19.9720641,10.7342666 19.4611606,10.1834872 18.826503,9.79370487 C18.190173,9.40392254 17.453502,9.14039578 16.6173259,9.00481932 C15.7803138,8.86924285 14.9106907,8.80145462 14.0067844,8.80145462 L7.88179512,8.80145462 L7.88179512,19.6882447 L14.0067844,19.6882447 Z M16.1657909,2.59459459 C18.4075788,2.59459459 20.3148963,2.92506223 21.8885795,3.58684485 C23.4614266,4.24778011 24.7416121,5.12140096 25.729136,6.20686003 C26.7158237,7.2923191 27.4366074,8.53030169 27.8881425,9.92080781 C28.3396775,11.3113139 28.565445,12.7526612 28.565445,14.2448497 C28.565445,15.703144 28.3396775,17.1368651 27.8881425,18.543471 C27.4366074,19.9517715 26.7158237,21.1982276 25.729136,22.2828393 C24.7416121,23.3691458 23.4614266,24.2419193 21.8885795,24.9028545 C20.3148963,25.5646371 18.4075788,25.8951048 16.1657909,25.8951048 L7.88179512,25.8951048 L7.88179512,38.9189189 L0,38.9189189 L0,2.59459459 L16.1657909,2.59459459 Z" id="Fill-1" fill="#FFFFFF"></path>
                                    <mask id="mask-2" fill="white">
                                        <use xlink:href="#path-1"></use>
                                    </mask>
                                    <g id="Clip-4"></g>
                                    <polygon id="Fill-3" fill="#FFFFFF" mask="url(#mask-2)" points="31.1623037 38.9189189 38.9528796 38.9189189 38.9528796 2.59459459 31.1623037 2.59459459"></polygon>
                                    <path d="M101.388781,32.2481119 C102.164466,31.834678 102.806092,31.2814189 103.311974,30.5900607 C103.818699,29.8995657 104.19811,29.1132645 104.451894,28.2328833 C104.704834,27.3516391 104.831305,26.428102 104.831305,25.4605458 C104.831305,24.3548906 104.730129,23.3096538 104.527776,22.3248353 C104.32458,21.3400167 103.987326,20.4682667 103.514327,19.7078591 C103.04217,18.9483146 102.41825,18.3441314 101.641722,17.8944465 C100.865193,17.4456248 99.8871558,17.2203508 98.7059223,17.2203508 C97.6933161,17.2203508 96.824043,17.4283624 96.0989461,17.8426594 C95.3721629,18.2569564 94.7659482,18.8188467 94.2760862,19.5266041 C93.7862242,20.2352247 93.4321072,21.0474194 93.213735,21.9623254 C92.9936765,22.8780944 92.8840688,23.8370194 92.8840688,24.8382372 C92.8840688,25.8057933 92.9768138,26.7638552 93.1631468,27.7141489 C93.3477936,28.6653058 93.6690284,29.5197934 94.1251649,30.279338 C94.5804583,31.0397456 95.1790848,31.6611912 95.9218875,32.1445377 C96.6638471,32.6287473 97.5921398,32.8704206 98.7059223,32.8704206 C99.7185286,32.8704206 100.612253,32.6624089 101.388781,32.2481119 M111.234922,41.1615396 C110.947413,42.5433928 110.33108,43.8303029 109.386768,45.02227 C108.441613,46.214237 107.07489,47.2249491 105.286598,48.0535431 C103.497464,48.8821372 101.101272,49.2972973 98.0988645,49.2972973 C96.8156116,49.2972973 95.5079078,49.1324416 94.1749099,48.8053196 C92.8410689,48.4764713 91.6269532,47.9672312 90.5308765,47.2767362 C89.4331135,46.584515 88.5225267,45.6955026 87.7974298,44.6071098 C87.0714898,43.5195801 86.65751,42.2154077 86.5563337,40.6954555 L93.6943224,40.6954555 C94.0307337,42.0764455 94.690066,43.0353705 95.6689468,43.5713673 C96.6469844,44.1065009 97.7776297,44.3749309 99.0600394,44.3749309 C101.085252,44.3749309 102.561583,43.7526222 103.489032,42.508868 C104.417325,41.2651139 104.864187,39.6925115 104.831305,37.7936501 L104.831305,34.2695361 L104.730129,34.2695361 C103.952757,35.6859141 102.847406,36.7302878 101.414075,37.4052467 C99.9790576,38.0784793 98.4690012,38.4159588 96.8830625,38.4159588 C94.926144,38.4159588 93.239029,38.0612169 91.8208744,37.3525964 C90.4044061,36.6457021 89.2400354,35.678146 88.3286054,34.4507911 C87.4180186,33.2251624 86.7510981,31.7915221 86.3295302,30.1498702 C85.9071191,28.5090813 85.6963351,26.7733495 85.6963351,24.9418114 C85.6963351,23.2147107 85.9408445,21.5480283 86.4307065,19.9409012 C86.9188822,18.3346371 87.6363908,16.9182592 88.5823893,15.6917674 C89.5267016,14.4661387 90.6986605,13.4899514 92.0991093,12.7640685 C93.5004012,12.0381856 95.1116339,11.6756757 96.9344938,11.6756757 C98.6553342,11.6756757 100.165391,12.0045239 101.464663,12.6604942 C102.763936,13.3173276 103.851581,14.4221197 104.730129,15.9765966 L104.831305,15.9765966 L104.831305,12.4015586 L111.664921,12.4015586 L111.664921,37.4820642 C111.664921,38.5540578 111.521588,39.7796864 111.234922,41.1615396" id="Fill-5" fill="#FFFFFF" mask="url(#mask-2)"></path>
                                    <path d="M123.701484,12.3943347 L123.701484,17.3198406 L123.802797,17.3198406 C124.140507,16.4986381 124.596415,15.7381072 125.171366,15.0365388 C125.745473,14.3358249 126.404007,13.7367999 127.147813,13.241173 C127.890774,12.7455461 128.685237,12.3601535 129.530356,12.0867042 C130.37463,11.8132549 131.25352,11.6756757 132.166181,11.6756757 C132.638974,11.6756757 133.162425,11.7619831 133.73822,11.9320344 L133.73822,18.7050323 C133.399666,18.63667 132.994414,18.5768529 132.520776,18.5255812 C132.047982,18.4743094 131.59123,18.447819 131.152207,18.447819 C129.835139,18.447819 128.719008,18.6708511 127.807191,19.1152063 C126.89453,19.560416 126.159167,20.1671317 125.601946,20.9370624 C125.044725,21.7061386 124.647072,22.6042487 124.410675,23.6296837 C124.174278,24.6559732 124.056079,25.7677156 124.056079,26.9649109 L124.056079,38.9189189 L116.858639,38.9189189 L116.858639,12.3943347 L123.701484,12.3943347 Z" id="Fill-6" fill="#FFFFFF" mask="url(#mask-2)"></path>
                                    <path d="M141.281407,28.3764569 C141.485139,29.3623886 141.833182,30.2465574 142.326383,31.0314657 C142.818736,31.81554 143.473226,32.4419652 144.289004,32.9090733 C145.103933,33.3770155 146.123443,33.6097354 147.346686,33.6097354 C148.569928,33.6097354 149.597078,33.3770155 150.429834,32.9090733 C151.262589,32.4419652 151.924719,31.81554 152.417921,31.0314657 C152.909425,30.2465574 153.258317,29.3623886 153.462898,28.3764569 C153.66663,27.3921935 153.768496,26.3820723 153.768496,25.3469275 C153.768496,24.3126168 153.66663,23.2941544 153.462898,22.2923745 C153.258317,21.2905945 152.909425,20.4064257 152.417921,19.6381998 C151.924719,18.870808 151.262589,18.2443827 150.429834,17.7597581 C149.597078,17.2768017 148.569928,17.0340724 147.346686,17.0340724 C146.123443,17.0340724 145.103933,17.2768017 144.289004,17.7597581 C143.473226,18.2443827 142.818736,18.870808 142.326383,19.6381998 C141.833182,20.4064257 141.485139,21.2905945 141.281407,22.2923745 C141.077674,23.2941544 140.975808,24.3126168 140.975808,25.3469275 C140.975808,26.3820723 141.077674,27.3921935 141.281407,28.3764569 M134.706797,19.7132707 C135.351949,18.0275111 136.269593,16.591988 137.45888,15.4067013 C138.647318,14.2214146 140.075142,13.3030468 141.740653,12.6515979 C143.404467,12.0009831 145.27371,11.6756757 147.346686,11.6756757 C149.418812,11.6756757 151.296545,12.0009831 152.978185,12.6515979 C154.660674,13.3030468 156.095288,14.2214146 157.285424,15.4067013 C158.473862,16.591988 159.391506,18.0275111 160.037507,19.7132707 C160.681811,21.3998645 161.005236,23.277472 161.005236,25.3469275 C161.005236,27.4180513 160.681811,29.2873176 160.037507,30.9563948 C159.391506,32.6263061 158.473862,34.053488 157.285424,35.2379406 C156.095288,36.4232273 154.660674,37.3332539 152.978185,37.9671863 C151.296545,38.6011186 149.418812,38.9189189 147.346686,38.9189189 C145.27371,38.9189189 143.404467,38.6011186 141.740653,37.9671863 C140.075142,37.3332539 138.647318,36.4232273 137.45888,35.2379406 C136.269593,34.053488 135.351949,32.6263061 134.706797,30.9563948 C134.060796,29.2873176 133.73822,27.4180513 133.73822,25.3469275 C133.73822,23.277472 134.060796,21.3998645 134.706797,19.7132707" id="Fill-7" fill="#FFFFFF" mask="url(#mask-2)"></path>
                                    <path d="M182.703974,38.2511084 L182.703974,34.5498972 L182.550628,34.5498972 C181.635632,36.0927107 180.448678,37.2057282 178.990615,37.890662 C177.532552,38.576452 176.0406,38.9189189 174.51476,38.9189189 C172.581407,38.9189189 170.996261,38.6620687 169.758475,38.1483684 C168.520688,37.6338118 167.54554,36.9069258 166.833876,35.9634294 C166.121365,35.0216454 165.620659,33.8735251 165.332605,32.5199246 C165.044551,31.1663241 164.900524,29.6671752 164.900524,28.0216216 L164.900524,11.6756757 L172.123909,11.6756757 L172.123909,26.6851445 C172.123909,28.8786451 172.461949,30.5147808 173.141418,31.5944077 C173.819193,32.6731785 175.023091,33.2134201 176.753111,33.2134201 C178.718658,33.2134201 180.14368,32.6226647 181.025634,31.4402976 C181.906742,30.2579306 182.347295,28.3135747 182.347295,25.6055175 L182.347295,11.6756757 L189.570681,11.6756757 L189.570681,38.2511084 L182.703974,38.2511084 Z" id="Fill-8" fill="#FFFFFF" mask="url(#mask-2)"></path>
                                    <path d="M200.332675,12.3943347 L200.332675,16.0884641 L200.485174,16.0884641 C201.401018,14.5486026 202.587124,13.4291695 204.046034,12.727601 C205.50325,12.0268871 206.996049,11.6756757 208.52189,11.6756757 C210.454395,11.6756757 212.039541,11.9414342 213.277327,12.4712423 C214.515114,13.0019049 215.491109,13.7367999 216.201926,14.6776365 C216.914436,15.6184731 217.414295,16.7643967 217.703197,18.1145527 C217.991251,19.4664178 218.136126,20.9618437 218.136126,22.6042487 L218.136126,38.9189189 L210.911893,38.9189189 L210.911893,23.9381687 C210.911893,21.7497196 210.573006,20.1158599 209.895231,19.0382987 C209.216609,17.9607374 208.012711,17.4223841 206.283538,17.4223841 C204.316297,17.4223841 202.892122,18.0120092 202.011015,19.1921139 C201.128213,20.3722186 200.688507,22.3137088 200.688507,25.0157299 L200.688507,38.9189189 L193.465969,38.9189189 L193.465969,12.3943347 L200.332675,12.3943347 Z" id="Fill-9" fill="#FFFFFF" mask="url(#mask-2)"></path>
                                    <path d="M240.586853,21.6087323 C240.379637,20.5916521 240.02478,19.6943806 239.524872,18.9177796 C239.022373,18.1420405 238.374824,17.5128299 237.580496,17.0292859 C236.785305,16.5466038 235.783762,16.3044008 234.573276,16.3044008 C233.363654,16.3044008 232.344843,16.5466038 231.515116,17.0292859 C230.685389,17.5128299 230.020571,18.1506598 229.5198,18.9436376 C229.019028,19.7383391 228.655537,20.6433681 228.431053,21.6604482 C228.205706,22.6783903 228.093464,23.7394289 228.093464,24.8427023 C228.093464,25.877883 228.215203,26.9130637 228.456955,27.9473825 C228.697844,28.9834251 229.087237,29.9065546 229.623408,30.7159091 C230.158715,31.5278493 230.832167,32.1837798 231.645489,32.6837006 C232.456221,33.1836213 233.433589,33.4335817 234.573276,33.4335817 C235.783762,33.4335817 236.793939,33.1922406 237.606398,32.7086966 C238.417994,32.2260145 239.065543,31.5787033 239.550774,30.768487 C240.033414,29.9582706 240.379637,29.0342791 240.586853,27.9999604 C240.794069,26.9647797 240.897677,25.8959836 240.897677,24.7909864 C240.897677,23.687713 240.794069,22.6266743 240.586853,21.6087323 L240.586853,21.6087323 Z M240.897677,34.830774 C240.033414,36.2796822 238.902361,37.3234822 237.50279,37.9621741 C236.10322,38.600004 234.522336,38.9189189 232.760138,38.9189189 C230.754461,38.9189189 228.992263,38.5310494 227.47268,37.7544484 C225.95137,36.9778473 224.699441,35.9262899 223.713439,34.5971903 C222.7283,33.2698145 221.984913,31.7433324 221.485005,30.0177439 C220.98337,28.2930174 220.732984,26.4993362 220.732984,24.6367005 C220.732984,22.8430193 220.98337,21.1088115 221.485005,19.4358009 C221.984913,17.7627903 222.7283,16.2880241 223.713439,15.0106404 C224.699441,13.7349806 225.934102,12.7075573 227.420012,11.9318182 C228.905923,11.1560791 230.634448,10.7673476 232.603862,10.7673476 C234.193381,10.7673476 235.705193,11.1035012 237.140163,11.7766704 C238.573406,12.4498395 239.705322,13.4410617 240.535049,14.7520607 L240.63952,14.7520607 L240.63952,1.2972973 L248,1.2972973 L248,38.2466117 L241.001285,38.2466117 L241.001285,34.830774 L240.897677,34.830774 Z" id="Fill-10" fill="#FFFFFF" mask="url(#mask-2)"></path>
                                    <path d="M54.1315919,12.972973 C51.9923272,12.972973 50.0890788,12.9957269 48.4235264,13.8570068 C46.6630636,14.7663229 45.2956812,16.0489725 44.3163398,17.7041131 C43.3378383,19.3600964 42.8481675,21.2604743 42.8481675,23.406932 L42.8481675,29.79237 C42.8481675,31.9388278 43.3285992,33.8307782 44.2894625,35.4673785 C45.2494859,37.1039789 46.609309,38.368931 48.368092,39.2597068 C50.126875,40.1513253 52.1485515,40.2162162 54.4322817,40.2162162 L58.4218801,40.2162162 L62.5047092,40.2162162 L70.1151832,40.2162162 L70.1151832,29.79237 L70.1151832,23.406932 L70.1151832,12.972973 L62.5047092,12.972973 L58.4764746,12.972973 L54.4868762,12.972973 L54.1315919,12.972973 Z M54.1315919,13.8157126 L54.3079742,13.8157126 L54.4868762,13.8157126 L58.4764746,13.8157126 L62.5047092,13.8157126 L69.2752678,13.8157126 L69.2752678,23.406932 L69.2752678,29.79237 L69.2752678,39.3734766 L62.5047092,39.3734766 L58.4218801,39.3734766 L54.4322817,39.3734766 C52.1779485,39.3734766 50.3276148,39.3085857 48.7468939,38.5071403 C47.1426553,37.6947393 45.8869817,36.5283877 45.0134696,35.0392668 C44.1340781,33.5417185 43.688083,31.7761791 43.688083,29.79237 L43.688083,23.406932 C43.688083,21.4248085 44.1424773,19.6508416 45.0386671,18.1347531 C45.9323371,16.6245637 47.2006095,15.4371436 48.8082077,14.6062023 C50.3360139,13.8157126 52.1796284,13.8157126 54.1315919,13.8157126 L54.1315919,13.8157126 Z" id="Fill-11" fill="#FFFFFF" mask="url(#mask-2)"></path>
                                    <path d="M74.0104712,40.2162162 L81.8010471,40.2162162 L81.8010471,12.972973 L74.0104712,12.972973 L74.0104712,40.2162162 Z M74.8702633,39.3717002 L80.9412551,39.3717002 L80.9412551,13.817489 L74.8702633,13.817489 L74.8702633,39.3717002 Z" id="Fill-12" fill="#FFFFFF" mask="url(#mask-2)"></path>
                                    <path d="M74.0104712,7.78378378 L81.8010471,7.78378378 L81.8010471,0 L74.0104712,0 L74.0104712,7.78378378 Z M74.8702633,6.97000608 L80.9412551,6.97000608 L80.9412551,0.813777709 L74.8702633,0.813777709 L74.8702633,6.97000608 Z" id="Fill-13" fill="#FFFFFF" mask="url(#mask-2)"></path>
                                </g>
                            </g>
                        </g>
                    </g>
                </g>
            </g>
        </g>
    </g>
</svg>