<svg xmlns="http://www.w3.org/2000/svg">

  <symbol id="linkedin" viewBox="0 0 14 14">
    <g fill="currentColor" fill-rule="nonzero">
      <path d="M13.996 14H14V8.841c0-2.523-.575-4.467-3.699-4.467-1.502 0-2.51.778-2.92 1.516h-.044V4.61H4.375v9.388h3.084V9.35c0-1.224.246-2.407 1.851-2.407 1.582 0 1.605 1.397 1.605 2.486V14h3.081zM.875 4.375H3.5V14H.875zM1.75 0C.784 0 0 .78 0 1.742A1.76 1.76 0 001.75 3.5 1.76 1.76 0 003.5 1.742C3.5.78 2.715 0 1.75 0z"/>
    </g>
  </symbol>

  <symbol id="ai" viewBox="0 0 26 26">
    <g fill="#FFF" fill-rule="evenodd">
      <path d="M8.054 8.81c-1.34 0-2.531.014-3.574.556a6.27 6.27 0 00-2.573 2.42c-.613 1.043-.92 2.239-.92 3.59v4.017c0 1.351.302 2.542.903 3.571.602 1.03 1.453 1.826 2.555 2.387 1.101.56 2.368.602 3.798.602h9.822V8.81H8.054zM20.627 25.953h5.123V8.81h-5.123zM20.627 5.381h5.123V.238h-5.123z"/>
    </g>
  </symbol>

  <symbol id="close" viewBox="0 0 16 16">
    <g stroke="currentColor" stroke-width="2" fill="none" fill-rule="evenodd" stroke-linecap="square">
      <path d="M14.258 1.737l-12.02 12.02M2 2l12.258 11.758"/>
    </g>
  </symbol>

</svg>
