<?xml version="1.0" encoding="utf-8"?>
<!-- Generator: Adobe Illustrator 24.1.0, SVG Export Plug-In . SVG Version: 6.00 Build 0)  -->
<svg version="1.1" id="Capa_1" xmlns="http://www.w3.org/2000/svg" xmlns:xlink="http://www.w3.org/1999/xlink" x="0px" y="0px"
	 viewBox="0 0 182 37" style="enable-background:new 0 0 182 37;" xml:space="preserve">
<style type="text/css">
	.st0{fill-rule:evenodd;clip-rule:evenodd;}
	.st1{filter:url(#Adobe_OpacityMaskFilter);}
	.st2{fill-rule:evenodd;clip-rule:evenodd;fill:#FFFFFF;}
	.st3{mask:url(#mask-2_1_);fill-rule:evenodd;clip-rule:evenodd;}
	.st4{filter:url(#Adobe_OpacityMaskFilter_1_);}
	.st5{mask:url(#mask-2_2_);fill-rule:evenodd;clip-rule:evenodd;}
	.st6{filter:url(#Adobe_OpacityMaskFilter_2_);}
	.st7{mask:url(#mask-2_3_);fill-rule:evenodd;clip-rule:evenodd;}
	.st8{filter:url(#Adobe_OpacityMaskFilter_3_);}
	.st9{mask:url(#mask-2_4_);fill-rule:evenodd;clip-rule:evenodd;}
	.st10{filter:url(#Adobe_OpacityMaskFilter_4_);}
	.st11{mask:url(#mask-2_5_);fill-rule:evenodd;clip-rule:evenodd;}
	.st12{filter:url(#Adobe_OpacityMaskFilter_5_);}
	.st13{mask:url(#mask-2_6_);fill-rule:evenodd;clip-rule:evenodd;}
	.st14{filter:url(#Adobe_OpacityMaskFilter_6_);}
	.st15{mask:url(#mask-2_7_);fill-rule:evenodd;clip-rule:evenodd;}
	.st16{filter:url(#Adobe_OpacityMaskFilter_7_);}
	.st17{mask:url(#mask-2_8_);fill-rule:evenodd;clip-rule:evenodd;}
	.st18{filter:url(#Adobe_OpacityMaskFilter_8_);}
	.st19{mask:url(#mask-2_9_);fill-rule:evenodd;clip-rule:evenodd;}
	.st20{filter:url(#Adobe_OpacityMaskFilter_9_);}
	.st21{mask:url(#mask-2_10_);fill-rule:evenodd;clip-rule:evenodd;}
</style>
<desc>Created with Sketch.</desc>
<g id="Page-1">
	<g id="_x31_200-_x28_1024_x29_" transform="translate(-99.000000, -35.000000)">
		<g id="HEADER" transform="translate(-22.000000, 0.000000)">
			<g id="_x31_">
				<g transform="translate(1.000000, 0.000000)">
					<g id="Navigation">
						<g id="Logo" transform="translate(119.286595, 34.482727)">
							<g id="LOGO_x2F_Blanco" transform="translate(0.713405, 0.517273)">
								<g id="Group-14">
									<path id="Fill-1" class="st0" d="M10.3,14.4c0.7,0,1.3,0,1.9-0.1c0.6-0.1,1.2-0.3,1.6-0.6c0.5-0.3,0.8-0.7,1.1-1.2
										c0.3-0.5,0.4-1.2,0.4-2c0-0.8-0.1-1.5-0.4-2c-0.3-0.5-0.7-0.9-1.1-1.2c-0.5-0.3-1-0.5-1.6-0.6c-0.6-0.1-1.3-0.1-1.9-0.1
										H5.8v8H10.3z M11.9,1.9c1.6,0,3,0.2,4.2,0.7c1.2,0.5,2.1,1.1,2.8,1.9c0.7,0.8,1.3,1.7,1.6,2.7c0.3,1,0.5,2.1,0.5,3.2
										c0,1.1-0.2,2.1-0.5,3.1c-0.3,1-0.9,1.9-1.6,2.7c-0.7,0.8-1.7,1.4-2.8,1.9c-1.2,0.5-2.6,0.7-4.2,0.7H5.8v9.5H0V1.9H11.9z"/>
									<g id="Clip-4">
									</g>
									<defs>
										<filter id="Adobe_OpacityMaskFilter" filterUnits="userSpaceOnUse" x="22.9" y="1.9" width="5.7" height="26.6">
											<feColorMatrix  type="matrix" values="1 0 0 0 0  0 1 0 0 0  0 0 1 0 0  0 0 0 1 0"/>
										</filter>
									</defs>
									<mask maskUnits="userSpaceOnUse" x="22.9" y="1.9" width="5.7" height="26.6" id="mask-2_1_">
										<g class="st1">
											<polygon id="path-1_1_" class="st2" points="0,41 182,41 182,0 0,0 											"/>
										</g>
									</mask>
									<polygon id="Fill-3" class="st3" points="22.9,28.5 28.6,28.5 28.6,1.9 22.9,1.9 									"/>
									<defs>
										<filter id="Adobe_OpacityMaskFilter_1_" filterUnits="userSpaceOnUse" x="62.9" y="8.5" width="19.1" height="27.5">
											<feColorMatrix  type="matrix" values="1 0 0 0 0  0 1 0 0 0  0 0 1 0 0  0 0 0 1 0"/>
										</filter>
									</defs>
									<mask maskUnits="userSpaceOnUse" x="62.9" y="8.5" width="19.1" height="27.5" id="mask-2_2_">
										<g class="st4">
											<polygon id="path-1_2_" class="st2" points="0,41 182,41 182,0 0,0 											"/>
										</g>
									</mask>
									<path id="Fill-5" class="st5" d="M74.4,23.6c0.6-0.3,1-0.7,1.4-1.2c0.4-0.5,0.7-1.1,0.8-1.7c0.2-0.6,0.3-1.3,0.3-2
										c0-0.8-0.1-1.6-0.2-2.3c-0.1-0.7-0.4-1.4-0.7-1.9c-0.3-0.6-0.8-1-1.4-1.3c-0.6-0.3-1.3-0.5-2.2-0.5c-0.7,0-1.4,0.2-1.9,0.5
										c-0.5,0.3-1,0.7-1.3,1.2c-0.4,0.5-0.6,1.1-0.8,1.8c-0.2,0.7-0.2,1.4-0.2,2.1c0,0.7,0.1,1.4,0.2,2.1
										c0.1,0.7,0.4,1.3,0.7,1.9c0.3,0.6,0.8,1,1.3,1.4c0.5,0.4,1.2,0.5,2,0.5C73.2,24.1,73.8,23.9,74.4,23.6 M81.6,30.1
										c-0.2,1-0.7,2-1.4,2.8c-0.7,0.9-1.7,1.6-3,2.2c-1.3,0.6-3.1,0.9-5.3,0.9c-0.9,0-1.9-0.1-2.9-0.4c-1-0.2-1.9-0.6-2.7-1.1
										c-0.8-0.5-1.5-1.2-2-2c-0.5-0.8-0.8-1.8-0.9-2.9h5.2c0.2,1,0.7,1.7,1.4,2.1c0.7,0.4,1.5,0.6,2.5,0.6c1.5,0,2.6-0.5,3.3-1.4
										c0.7-0.9,1-2.1,1-3.5v-2.6h-0.1c-0.6,1-1.4,1.8-2.4,2.3c-1.1,0.5-2.2,0.7-3.3,0.7c-1.4,0-2.7-0.3-3.7-0.8
										c-1-0.5-1.9-1.2-2.6-2.1c-0.7-0.9-1.2-1.9-1.5-3.1c-0.3-1.2-0.5-2.5-0.5-3.8c0-1.3,0.2-2.5,0.5-3.7
										c0.4-1.2,0.9-2.2,1.6-3.1c0.7-0.9,1.6-1.6,2.6-2.1c1-0.5,2.2-0.8,3.5-0.8c1.3,0,2.4,0.2,3.3,0.7c1,0.5,1.8,1.3,2.4,2.4h0.1
										V9.1h5v18.4C81.9,28.2,81.8,29.1,81.6,30.1"/>
									<defs>
										<filter id="Adobe_OpacityMaskFilter_2_" filterUnits="userSpaceOnUse" x="85.8" y="8.5" width="12.4" height="19.9">
											<feColorMatrix  type="matrix" values="1 0 0 0 0  0 1 0 0 0  0 0 1 0 0  0 0 0 1 0"/>
										</filter>
									</defs>
									<mask maskUnits="userSpaceOnUse" x="85.8" y="8.5" width="12.4" height="19.9" id="mask-2_3_">
										<g class="st6">
											<polygon id="path-1_3_" class="st2" points="0,41 182,41 182,0 0,0 											"/>
										</g>
									</mask>
									<path id="Fill-6" class="st7" d="M90.8,9.1v3.6h0.1c0.2-0.6,0.6-1.2,1-1.7c0.4-0.5,0.9-1,1.5-1.3c0.5-0.4,1.1-0.6,1.7-0.8
										c0.6-0.2,1.3-0.3,1.9-0.3c0.3,0,0.7,0.1,1.2,0.2v5c-0.2-0.1-0.5-0.1-0.9-0.1c-0.3,0-0.7-0.1-1-0.1c-1,0-1.8,0.2-2.5,0.5
										c-0.7,0.3-1.2,0.8-1.6,1.3c-0.4,0.6-0.7,1.2-0.9,2c-0.2,0.8-0.3,1.6-0.3,2.4v8.8h-5.3V9.1H90.8z"/>
									<defs>
										<filter id="Adobe_OpacityMaskFilter_3_" filterUnits="userSpaceOnUse" x="98.1" y="8.5" width="20" height="19.9">
											<feColorMatrix  type="matrix" values="1 0 0 0 0  0 1 0 0 0  0 0 1 0 0  0 0 0 1 0"/>
										</filter>
									</defs>
									<mask maskUnits="userSpaceOnUse" x="98.1" y="8.5" width="20" height="19.9" id="mask-2_4_">
										<g class="st8">
											<polygon id="path-1_4_" class="st2" points="0,41 182,41 182,0 0,0 											"/>
										</g>
									</mask>
									<path id="Fill-7" class="st9" d="M103.7,20.8c0.1,0.7,0.4,1.4,0.8,1.9c0.4,0.6,0.8,1,1.4,1.4c0.6,0.3,1.3,0.5,2.2,0.5
										c0.9,0,1.7-0.2,2.3-0.5c0.6-0.3,1.1-0.8,1.5-1.4c0.4-0.6,0.6-1.2,0.8-1.9c0.1-0.7,0.2-1.5,0.2-2.2c0-0.8-0.1-1.5-0.2-2.2
										c-0.2-0.7-0.4-1.4-0.8-1.9c-0.4-0.6-0.8-1-1.5-1.4c-0.6-0.4-1.4-0.5-2.3-0.5c-0.9,0-1.6,0.2-2.2,0.5
										c-0.6,0.4-1.1,0.8-1.4,1.4c-0.4,0.6-0.6,1.2-0.8,1.9s-0.2,1.5-0.2,2.2C103.5,19.3,103.5,20.1,103.7,20.8 M98.9,14.4
										c0.5-1.2,1.1-2.3,2-3.2c0.9-0.9,1.9-1.5,3.1-2c1.2-0.5,2.6-0.7,4.1-0.7c1.5,0,2.9,0.2,4.1,0.7c1.2,0.5,2.3,1.1,3.2,2
										c0.9,0.9,1.5,1.9,2,3.2c0.5,1.2,0.7,2.6,0.7,4.1c0,1.5-0.2,2.9-0.7,4.1c-0.5,1.2-1.1,2.3-2,3.1c-0.9,0.9-1.9,1.5-3.2,2
										c-1.2,0.5-2.6,0.7-4.1,0.7c-1.5,0-2.9-0.2-4.1-0.7c-1.2-0.5-2.3-1.1-3.1-2c-0.9-0.9-1.5-1.9-2-3.1
										c-0.5-1.2-0.7-2.6-0.7-4.1C98.1,17,98.4,15.7,98.9,14.4"/>
									<defs>
										<filter id="Adobe_OpacityMaskFilter_4_" filterUnits="userSpaceOnUse" x="121" y="8.5" width="18.1" height="19.9">
											<feColorMatrix  type="matrix" values="1 0 0 0 0  0 1 0 0 0  0 0 1 0 0  0 0 0 1 0"/>
										</filter>
									</defs>
									<mask maskUnits="userSpaceOnUse" x="121" y="8.5" width="18.1" height="19.9" id="mask-2_5_">
										<g class="st10">
											<polygon id="path-1_5_" class="st2" points="0,41 182,41 182,0 0,0 											"/>
										</g>
									</mask>
									<path id="Fill-8" class="st11" d="M134.1,28v-2.7H134c-0.7,1.1-1.5,1.9-2.6,2.4c-1.1,0.5-2.2,0.8-3.3,0.8
										c-1.4,0-2.6-0.2-3.5-0.6c-0.9-0.4-1.6-0.9-2.1-1.6c-0.5-0.7-0.9-1.5-1.1-2.5c-0.2-1-0.3-2.1-0.3-3.3v-12h5.3v11
										c0,1.6,0.2,2.8,0.7,3.6c0.5,0.8,1.4,1.2,2.7,1.2c1.4,0,2.5-0.4,3.1-1.3c0.6-0.9,1-2.3,1-4.3V8.5h5.3V28H134.1z"/>
									<defs>
										<filter id="Adobe_OpacityMaskFilter_5_" filterUnits="userSpaceOnUse" x="142" y="8.5" width="18.1" height="19.9">
											<feColorMatrix  type="matrix" values="1 0 0 0 0  0 1 0 0 0  0 0 1 0 0  0 0 0 1 0"/>
										</filter>
									</defs>
									<mask maskUnits="userSpaceOnUse" x="142" y="8.5" width="18.1" height="19.9" id="mask-2_6_">
										<g class="st12">
											<polygon id="path-1_6_" class="st2" points="0,41 182,41 182,0 0,0 											"/>
										</g>
									</mask>
									<path id="Fill-9" class="st13" d="M147,9.1v2.7h0.1c0.7-1.1,1.5-1.9,2.6-2.5c1.1-0.5,2.2-0.8,3.3-0.8
										c1.4,0,2.6,0.2,3.5,0.6c0.9,0.4,1.6,0.9,2.1,1.6c0.5,0.7,0.9,1.5,1.1,2.5c0.2,1,0.3,2.1,0.3,3.3v11.9h-5.3v-11
										c0-1.6-0.2-2.8-0.7-3.6c-0.5-0.8-1.4-1.2-2.7-1.2c-1.4,0-2.5,0.4-3.1,1.3c-0.6,0.9-1,2.3-1,4.3v10.2H142V9.1H147z"/>
									<defs>
										<filter id="Adobe_OpacityMaskFilter_6_" filterUnits="userSpaceOnUse" x="162" y="0.9" width="20" height="27.5">
											<feColorMatrix  type="matrix" values="1 0 0 0 0  0 1 0 0 0  0 0 1 0 0  0 0 0 1 0"/>
										</filter>
									</defs>
									<mask maskUnits="userSpaceOnUse" x="162" y="0.9" width="20" height="27.5" id="mask-2_7_">
										<g class="st14">
											<polygon id="path-1_7_" class="st2" points="0,41 182,41 182,0 0,0 											"/>
										</g>
									</mask>
									<path id="Fill-10" class="st15" d="M176.6,15.8c-0.2-0.7-0.4-1.4-0.8-2c-0.4-0.6-0.8-1-1.4-1.4c-0.6-0.4-1.3-0.5-2.2-0.5
										c-0.9,0-1.6,0.2-2.2,0.5c-0.6,0.4-1.1,0.8-1.5,1.4c-0.4,0.6-0.6,1.2-0.8,2c-0.2,0.7-0.2,1.5-0.2,2.3c0,0.8,0.1,1.5,0.3,2.3
										c0.2,0.8,0.5,1.4,0.9,2c0.4,0.6,0.9,1.1,1.5,1.4c0.6,0.4,1.3,0.5,2.1,0.5c0.9,0,1.6-0.2,2.2-0.5c0.6-0.4,1.1-0.8,1.4-1.4
										c0.4-0.6,0.6-1.3,0.8-2c0.2-0.8,0.2-1.5,0.2-2.3C176.8,17.3,176.7,16.6,176.6,15.8L176.6,15.8z M176.8,25.5
										c-0.6,1.1-1.5,1.8-2.5,2.3c-1,0.5-2.2,0.7-3.5,0.7c-1.5,0-2.8-0.3-3.9-0.9c-1.1-0.6-2-1.3-2.8-2.3c-0.7-1-1.3-2.1-1.6-3.4
										c-0.4-1.3-0.6-2.6-0.6-3.9c0-1.3,0.2-2.6,0.6-3.8c0.4-1.2,0.9-2.3,1.6-3.2c0.7-0.9,1.6-1.7,2.7-2.3
										c1.1-0.6,2.4-0.9,3.8-0.9c1.2,0,2.3,0.2,3.3,0.7c1.1,0.5,1.9,1.2,2.5,2.2h0.1V0.9h5.4V28h-5.1L176.8,25.5L176.8,25.5z"/>
									<defs>
										<filter id="Adobe_OpacityMaskFilter_7_" filterUnits="userSpaceOnUse" x="31.4" y="9.5" width="20" height="19.9">
											<feColorMatrix  type="matrix" values="1 0 0 0 0  0 1 0 0 0  0 0 1 0 0  0 0 0 1 0"/>
										</filter>
									</defs>
									<mask maskUnits="userSpaceOnUse" x="31.4" y="9.5" width="20" height="19.9" id="mask-2_8_">
										<g class="st16">
											<polygon id="path-1_8_" class="st2" points="0,41 182,41 182,0 0,0 											"/>
										</g>
									</mask>
									<path id="Fill-11" class="st17" d="M39.7,9.5c-1.6,0-3,0-4.2,0.6c-1.3,0.7-2.3,1.6-3,2.8c-0.7,1.2-1.1,2.6-1.1,4.2v4.7
										c0,1.6,0.4,3,1.1,4.2c0.7,1.2,1.7,2.1,3,2.8c1.3,0.7,2.8,0.7,4.5,0.7h2.9h3h5.6v-7.6v-4.7V9.5h-5.6h-3H40H39.7z M39.7,10.1
										h0.1H40h2.9h3h5v7v4.7v7h-5h-3h-2.9c-1.7,0-3,0-4.2-0.6c-1.2-0.6-2.1-1.4-2.7-2.5c-0.6-1.1-1-2.4-1-3.8v-4.7
										c0-1.5,0.3-2.7,1-3.9c0.7-1.1,1.6-2,2.8-2.6C36.9,10.1,38.3,10.1,39.7,10.1L39.7,10.1z"/>
									<defs>
										<filter id="Adobe_OpacityMaskFilter_8_" filterUnits="userSpaceOnUse" x="54.3" y="9.5" width="5.7" height="19.9">
											<feColorMatrix  type="matrix" values="1 0 0 0 0  0 1 0 0 0  0 0 1 0 0  0 0 0 1 0"/>
										</filter>
									</defs>
									<mask maskUnits="userSpaceOnUse" x="54.3" y="9.5" width="5.7" height="19.9" id="mask-2_9_">
										<g class="st18">
											<polygon id="path-1_9_" class="st2" points="0,41 182,41 182,0 0,0 											"/>
										</g>
									</mask>
									<path id="Fill-12" class="st19" d="M54.3,29.4H60V9.5h-5.7V29.4z M54.9,28.8h4.5V10.1h-4.5V28.8z"/>
									<defs>
										<filter id="Adobe_OpacityMaskFilter_9_" filterUnits="userSpaceOnUse" x="54.3" y="0" width="5.7" height="5.7">
											<feColorMatrix  type="matrix" values="1 0 0 0 0  0 1 0 0 0  0 0 1 0 0  0 0 0 1 0"/>
										</filter>
									</defs>
									<mask maskUnits="userSpaceOnUse" x="54.3" y="0" width="5.7" height="5.7" id="mask-2_10_">
										<g class="st20">
											<polygon id="path-1_10_" class="st2" points="0,41 182,41 182,0 0,0 											"/>
										</g>
									</mask>
									<path id="Fill-13" class="st21" d="M54.3,5.7H60V0h-5.7V5.7z M54.9,5.1h4.5V0.6h-4.5V5.1z"/>
								</g>
							</g>
						</g>
					</g>
				</g>
			</g>
		</g>
	</g>
</g>
</svg>
